<svg width="33" height="32" viewBox="0 0 33 32" fill="none" xmlns="http://www.w3.org/2000/svg">
<g clip-path="url(#clip0_2_689)">
<g clip-path="url(#clip1_2_689)">
<path d="M6.8483 32H26.1516C27.3002 32 28.2565 31.1215 28.2565 30.0419V6.62855C28.2565 5.54866 27.3002 4.66089 26.1516 4.66089H22.9695V6.44866C22.9741 6.75899 22.7293 7.01578 22.4192 7.02611H10.5429C10.2266 7.0185 9.97113 6.76496 9.9608 6.44866V4.66089H6.8483C5.69966 4.66089 4.74341 5.54866 4.74341 6.62855V30.0419C4.74341 31.1215 5.69966 32 6.8483 32ZM11.1434 14.0522C11.1434 13.7449 11.3926 13.4957 11.6999 13.4957H14.5521V10.6435C14.5521 10.3362 14.8013 10.087 15.1086 10.087H17.8912C18.1986 10.087 18.4478 10.3362 18.4478 10.6435V13.4957H21.2999C21.6073 13.4957 21.8565 13.7449 21.8565 14.0522V16.8348C21.8565 17.1421 21.6073 17.3913 21.2999 17.3913H18.4478V20.2435C18.4478 20.5508 18.1986 20.8 17.8912 20.8H15.1086C14.8013 20.8 14.5521 20.5508 14.5521 20.2435V17.3913H11.6999C11.3926 17.3913 11.1434 17.1421 11.1434 16.8348V14.0522ZM11.37 23.6522H21.6298C21.9374 23.6522 22.1863 23.9014 22.1863 24.2087C22.1863 24.5161 21.9374 24.7652 21.6298 24.7652H11.37C11.0624 24.7652 10.8135 24.5161 10.8135 24.2087C10.8135 23.9014 11.0624 23.6522 11.37 23.6522ZM9.28308 26.4348H23.7168C24.0244 26.4348 24.2733 26.684 24.2733 26.9913C24.2733 27.2987 24.0244 27.5478 23.7168 27.5478H9.28308C8.97547 27.5478 8.72656 27.2987 8.72656 26.9913C8.72656 26.684 8.97547 26.4348 9.28308 26.4348Z" fill="#5D5DF9"/>
<path d="M21.8566 2.15652H19.2522C18.9903 2.15625 18.7636 1.97337 18.7085 1.71712C18.4933 0.722556 17.5487 1.23676e-06 16.4623 1.23676e-06H16.4555C15.3982 -0.00108572 14.4745 0.714403 14.2115 1.73832C14.1482 1.98424 13.9264 2.15625 13.6723 2.15652H11.074V5.91304H21.8566V2.15652Z" fill="#5D5DF9"/>
<path d="M15.6653 16.8347V19.6869H17.3349V16.8347C17.3349 16.5274 17.584 16.2782 17.8914 16.2782H20.7435V14.6086H17.8914C17.584 14.6086 17.3349 14.3595 17.3349 14.0521V11.2H15.6653V14.0521C15.6653 14.3595 15.4161 14.6086 15.1088 14.6086H12.2566V16.2782H15.1088C15.4161 16.2782 15.6653 16.5274 15.6653 16.8347Z" fill="#5D5DF9"/>
</g>
</g>
<defs>
<clipPath id="clip0_2_689">
<rect width="32" height="32" fill="white" transform="translate(0.5)"/>
</clipPath>
<clipPath id="clip1_2_689">
<rect width="32" height="32" fill="white" transform="translate(0.5)"/>
</clipPath>
</defs>
</svg>
